<?xml version="1.0" encoding="UTF-8" standalone="no"?>
<!-- Created with Inkscape (http://www.inkscape.org/) -->

<svg
   xmlns:dc="http://purl.org/dc/elements/1.1/"
   xmlns:cc="http://creativecommons.org/ns#"
   xmlns:rdf="http://www.w3.org/1999/02/22-rdf-syntax-ns#"
   xmlns:svg="http://www.w3.org/2000/svg"
   xmlns="http://www.w3.org/2000/svg"
   xmlns:xlink="http://www.w3.org/1999/xlink"
   xmlns:sodipodi="http://sodipodi.sourceforge.net/DTD/sodipodi-0.dtd"
   xmlns:inkscape="http://www.inkscape.org/namespaces/inkscape"
   width="6.3499999mm"
   height="6.3499999mm"
   viewBox="0 0 6.3499999 6.3499999"
   version="1.1"
   id="svg8"
   inkscape:version="0.92.3 (2405546, 2018-03-11)"
   sodipodi:docname="apidaora.svg"
   inkscape:export-filename="/home/diogo/Desenvolvimento/apidaora/docs/favicon.png"
   inkscape:export-xdpi="256"
   inkscape:export-ydpi="256">
  <defs
     id="defs2">
    <linearGradient
       inkscape:collect="always"
       id="linearGradient11301">
      <stop
         style="stop-color:#ff70b2;stop-opacity:1"
         offset="0"
         id="stop11303" />
      <stop
         style="stop-color:#e91e63;stop-opacity:1"
         offset="1"
         id="stop11305" />
    </linearGradient>
    <linearGradient
       inkscape:collect="always"
       xlink:href="#linearGradient11301"
       id="linearGradient11307"
       x1="89.136749"
       y1="111.92053"
       x2="147.77737"
       y2="168.1012"
       gradientUnits="userSpaceOnUse"
       gradientTransform="matrix(0.08193995,0,0,0.10256328,36.272385,46.915791)" />
    <linearGradient
       inkscape:collect="always"
       id="linearGradient9515">
      <stop
         style="stop-color:#ab47bc;stop-opacity:1"
         offset="0"
         id="stop9517" />
      <stop
         style="stop-color:#b73da8;stop-opacity:1"
         offset="1"
         id="stop9519" />
    </linearGradient>
    <linearGradient
       inkscape:collect="always"
       xlink:href="#linearGradient9515"
       id="linearGradient9521"
       x1="55.549179"
       y1="77.070274"
       x2="110.14919"
       y2="131.85291"
       gradientUnits="userSpaceOnUse"
       gradientTransform="matrix(0.08193995,0,0,0.10256328,36.46488,47.284778)" />
  </defs>
  <sodipodi:namedview
     id="base"
     pagecolor="#ffffff"
     bordercolor="#666666"
     borderopacity="1.0"
     inkscape:pageopacity="0.0"
     inkscape:pageshadow="2"
     inkscape:zoom="15.839192"
     inkscape:cx="8.2622077"
     inkscape:cy="15.636738"
     inkscape:document-units="mm"
     inkscape:current-layer="g4614"
     showgrid="false"
     inkscape:window-width="1315"
     inkscape:window-height="713"
     inkscape:window-x="0"
     inkscape:window-y="27"
     inkscape:window-maximized="1" />
  <metadata
     id="metadata5">
    <rdf:RDF>
      <cc:Work
         rdf:about="">
        <dc:format>image/svg+xml</dc:format>
        <dc:type
           rdf:resource="http://purl.org/dc/dcmitype/StillImage" />
        <dc:title></dc:title>
      </cc:Work>
    </rdf:RDF>
  </metadata>
  <g
     inkscape:label="Layer 1"
     inkscape:groupmode="layer"
     id="layer1"
     transform="translate(0,-290.65)">
    <g
       id="g4614"
       transform="matrix(0.39693805,0,0,0.39693805,-15.971014,270.14634)">
      <g
         id="g1562">
        <path
           inkscape:connector-curvature="0"
           id="path4670"
           d="m 47.125695,56.898923 v 1.125345 c 0,0 0.01387,0.446342 -0.159074,0.901161 -0.172936,0.45482 -0.567022,0.92476 -1.274947,0.92476 h -2.176366 c 0,0 -0.27088,-0.0022 -0.53496,0.154863 -0.264078,0.157056 -0.512571,0.4306 -0.512571,1.109122 v 2.499947 l -0.0024,0.0177 c 0,0 -0.04228,0.267392 0.168501,0.579635 0.21078,0.312239 0.705399,0.676976 1.877071,0.676976 1.123739,0 1.611985,-0.307633 1.816976,-0.561936 0.102492,-0.12715 0.141903,-0.244147 0.157896,-0.327426 0.01595,-0.08328 0.01061,-0.112089 0.01061,-0.112089 l -0.0024,-0.01622 -0.0035,-1.092898 h -2.191684 v -0.817092 h 3.243928 l 0.0082,0.0029 c 0,0 0.30471,0.04303 0.620977,-0.224184 0.316267,-0.267213 0.658683,-0.851375 0.658683,-2.25659 0,-1.410965 -0.305303,-2.034683 -0.579736,-2.32296 -0.274332,-0.288237 -0.52072,-0.261017 -0.52072,-0.261017 h -0.0059 z m -1.405741,6.13409 c 0.310224,0 0.565596,0.319645 0.565596,0.70795 0,0.388305 -0.255372,0.704999 -0.565596,0.704999 -0.310225,0 -0.565597,-0.316694 -0.565597,-0.704999 0,-0.388305 0.255372,-0.70795 0.565597,-0.70795 z"
           style="color:#000000;display:inline;overflow:visible;visibility:visible;opacity:1;fill:url(#linearGradient11307);fill-opacity:1;fill-rule:nonzero;stroke:none;stroke-width:0.38265893;stroke-linecap:butt;stroke-linejoin:miter;stroke-miterlimit:4;stroke-dasharray:none;stroke-dashoffset:0;stroke-opacity:1;marker:none;marker-start:none;marker-mid:none;marker-end:none" />
        <path
           inkscape:connector-curvature="0"
           id="path4665"
           d="m 44.638251,54.418149 c -1.123738,0 -1.613164,0.307633 -1.818155,0.561935 -0.102497,0.127151 -0.139546,0.242673 -0.155539,0.325952 -0.01595,0.08327 -0.01061,0.115043 -0.01061,0.115043 l 0.0024,0.01475 0.0024,1.092898 h 2.191684 v 0.817091 h -3.243928 l -0.0094,-0.0029 c 0,-10e-7 -0.303532,-0.04303 -0.619799,0.224185 -0.316268,0.267212 -0.659862,0.851376 -0.659862,2.25659 0,1.410967 0.307661,2.033208 0.582092,2.321485 0.274432,0.288279 0.519642,0.262532 0.519642,0.262532 l 0.0047,-0.0015 h 0.600945 v -1.12389 c 0,0 -0.01504,-0.447816 0.157896,-0.902635 0.172936,-0.45482 0.567022,-0.924759 1.274947,-0.924759 h 2.175188 0.0024 c 0,0 0.269701,0.0022 0.53378,-0.154865 0.26408,-0.157056 0.512572,-0.430605 0.512572,-1.109121 v -2.499948 l 0.0035,-0.01622 c 0,0 0.0411,-0.267393 -0.16968,-0.579634 -0.210781,-0.312241 -0.705398,-0.676977 -1.877071,-0.676977 z m -1.207782,0.440993 c 0.310224,0 0.564417,0.319646 0.564417,0.70795 0,0.388305 -0.254193,0.70795 -0.564417,0.70795 -0.310224,0 -0.565596,-0.319645 -0.565596,-0.70795 0,-0.388304 0.255372,-0.70795 0.565596,-0.70795 z"
           style="color:#000000;display:inline;overflow:visible;visibility:visible;opacity:1;fill:url(#linearGradient9521);fill-opacity:1;fill-rule:nonzero;stroke:none;stroke-width:0.38265893;stroke-linecap:butt;stroke-linejoin:miter;stroke-miterlimit:4;stroke-dasharray:none;stroke-dashoffset:0;stroke-opacity:1;marker:none;marker-start:none;marker-mid:none;marker-end:none" />
      </g>
      <g
         aria-label="://"
         style="font-style:normal;font-variant:normal;font-weight:normal;font-stretch:normal;font-size:9.81246567px;line-height:1.25;font-family:'Ubuntu Condensed';-inkscape-font-specification:'Ubuntu Condensed, ';letter-spacing:0px;word-spacing:0px;fill:#e91e63;fill-opacity:1;stroke:#e91e63;stroke-width:0.24531162;stroke-opacity:1"
         id="text838"
         transform="matrix(0.92919287,0,0,0.83625172,2.8981922,9.6948872)">
        <path
           d="m 54.152587,55.974948 -2.673514,7.531834 h -0.584532 l 2.683096,-7.531834 z"
           style="font-style:normal;font-variant:normal;font-weight:normal;font-stretch:normal;font-family:'Tibetan Machine Uni';-inkscape-font-specification:'Tibetan Machine Uni';fill:#e91e63;fill-opacity:1;stroke:#e91e63;stroke-width:0.49629912;stroke-miterlimit:4;stroke-dasharray:none;stroke-opacity:1"
           id="path842"
           inkscape:connector-curvature="0" />
        <path
           d="m 56.950673,55.974948 -2.673514,7.531834 h -0.584532 l 2.683096,-7.531834 z"
           style="font-style:normal;font-variant:normal;font-weight:normal;font-stretch:normal;font-family:'Tibetan Machine Uni';-inkscape-font-specification:'Tibetan Machine Uni';fill:#e91e63;fill-opacity:1;stroke:#e91e63;stroke-width:0.49629912;stroke-miterlimit:4;stroke-dasharray:none;stroke-opacity:1"
           id="path844"
           inkscape:connector-curvature="0" />
      </g>
      <path
         d="m 49.743276,60.676464 c 0.149867,0.03318 0.26321,0.110532 0.340028,0.232065 0.08258,0.122808 0.104725,0.254247 0.06645,0.394311 -0.03827,0.140065 -0.12636,0.249852 -0.264235,0.329362 -0.130692,0.07559 -0.27674,0.09553 -0.438136,0.05981 -0.149868,-0.03317 -0.268973,-0.111808 -0.357319,-0.235893 -0.08117,-0.127995 -0.102601,-0.262027 -0.06426,-0.402101 0.03827,-0.140064 0.12565,-0.247258 0.262108,-0.321578 0.142222,-0.07305 0.294031,-0.09171 0.455434,-0.05594 z m 0.806033,-2.949161 c 0.14987,0.03318 0.263212,0.110532 0.340029,0.232063 0.08258,0.12281 0.105435,0.251653 0.06855,0.386534 -0.03971,0.145255 -0.128489,0.257635 -0.266363,0.337144 -0.130692,0.07559 -0.276739,0.09553 -0.438136,0.0598 -0.149869,-0.03318 -0.268973,-0.111808 -0.357319,-0.235893 -0.08117,-0.127995 -0.101891,-0.264621 -0.06216,-0.409879 0.03686,-0.134879 0.123524,-0.239477 0.259982,-0.313799 0.142222,-0.07305 0.294031,-0.0917 0.455433,-0.05595 z"
         style="font-style:normal;font-variant:normal;font-weight:normal;font-stretch:normal;font-size:9.81246567px;line-height:1.25;font-family:'Tibetan Machine Uni';-inkscape-font-specification:'Tibetan Machine Uni';letter-spacing:0px;word-spacing:0px;fill:#e91e63;fill-opacity:1;stroke:#e91e63;stroke-width:0.43748677;stroke-miterlimit:4;stroke-dasharray:none;stroke-opacity:1"
         id="path840"
         inkscape:connector-curvature="0"
         sodipodi:nodetypes="scscscscsscscscscs" />
    </g>
  </g>
  <style
     id="style221"
     type="text/css">
	.st0{fill:#333333;}
</style>
</svg>
